<?xml version="1.0" encoding="utf-8"?>
<!-- Generator: Adobe Illustrator 15.0.2, SVG Export Plug-In . SVG Version: 6.00 Build 0)  -->
<!DOCTYPE svg PUBLIC "-//W3C//DTD SVG 1.1//EN" "http://www.w3.org/Graphics/SVG/1.1/DTD/svg11.dtd">
<svg version="1.1" id="Layer_1" xmlns="http://www.w3.org/2000/svg" xmlns:xlink="http://www.w3.org/1999/xlink" x="0px" y="0px"
	 width="612px" height="792px" viewBox="0 0 612 792" enable-background="new 0 0 612 792" xml:space="preserve">
<path fill="#FFFFFF" d="M282.786,382.161h46.429c0.986,0,1.785-0.799,1.785-1.786v-4.464c0-0.986-0.799-1.786-1.785-1.786h-46.429
	c-0.986,0-1.786,0.8-1.786,1.786v4.464C281,381.361,281.799,382.161,282.786,382.161z M282.786,400.018h46.429
	c0.986,0,1.785-0.799,1.785-1.785v-4.465c0-0.986-0.799-1.785-1.785-1.785h-46.429c-0.986,0-1.786,0.799-1.786,1.785v4.465
	C281,399.219,281.799,400.018,282.786,400.018z M282.786,417.875h46.429c0.986,0,1.785-0.799,1.785-1.785v-4.465
	c0-0.986-0.799-1.785-1.785-1.785h-46.429c-0.986,0-1.786,0.799-1.786,1.785v4.465C281,417.076,281.799,417.875,282.786,417.875z"/>
</svg>
